<svg xmlns="http://www.w3.org/2000/svg" xmlns:xlink="http://www.w3.org/1999/xlink" width="178" height="130" viewBox="0 0 178 130"><defs><clipPath id="clip-path"><rect id="矩形_639" width="178" height="130" fill="none" data-name="矩形 639" transform="translate(744 1111)"/></clipPath><linearGradient id="linear-gradient" x1=".5" x2=".5" y2="1" gradientUnits="objectBoundingBox"><stop offset="0" stop-color="#e9e9e9"/><stop offset="1" stop-color="#fff" stop-opacity="0"/></linearGradient><linearGradient id="linear-gradient-2" x1=".5" x2=".5" y2="1" gradientUnits="objectBoundingBox"><stop offset="0" stop-color="#dcdcdc"/><stop offset="1" stop-color="#fff" stop-opacity="0"/></linearGradient><linearGradient id="linear-gradient-3" x1=".5" x2=".5" y2="1" gradientUnits="objectBoundingBox"><stop offset="0" stop-color="#f1f1f1"/><stop offset="1" stop-color="#fff" stop-opacity="0"/></linearGradient><linearGradient id="linear-gradient-5" x1=".5" x2=".5" y2="1" gradientUnits="objectBoundingBox"><stop offset="0" stop-color="#dedede"/><stop offset="1" stop-color="#fff" stop-opacity="0"/></linearGradient><linearGradient id="linear-gradient-7" x1=".5" x2=".5" y2="1" gradientUnits="objectBoundingBox"><stop offset="0" stop-color="#e8e8e8"/><stop offset="1" stop-color="#fff" stop-opacity="0"/></linearGradient><linearGradient id="linear-gradient-9" x1=".213" x2=".846" y1="1.265" gradientUnits="objectBoundingBox"><stop offset="0" stop-color="#fff"/><stop offset="1" stop-color="#f5f5f5"/></linearGradient><linearGradient id="linear-gradient-10" x1=".5" x2=".5" y2="1" gradientUnits="objectBoundingBox"><stop offset="0" stop-color="#c5c5c5"/><stop offset="1" stop-color="#fff" stop-opacity="0"/></linearGradient><linearGradient id="linear-gradient-11" x1=".5" x2=".5" y2="1" gradientUnits="objectBoundingBox"><stop offset="0" stop-color="#acacac"/><stop offset="1" stop-color="#f2f2f2" stop-opacity=".388"/></linearGradient></defs><g id="_404" clip-path="url(#clip-path)" data-name="404" transform="translate(-744 -1111)"><g id="组_407" data-name="组 407"><g id="组_401" data-name="组 401"><g id="组_72" data-name="组 72" transform="translate(754.588 1111)"><path id="路径_82" fill="url(#linear-gradient)" d="M0,10.795,36.6,0V93.779L0,104.574Z" data-name="路径 82" transform="translate(17.878 11.142)"/><path id="路径_81" fill="url(#linear-gradient-2)" d="M-8.492,10.642-26.361-.469v93.78l17.868,11.111Z" data-name="路径 81" transform="translate(26.37 11.293)"/><path id="路径_80" fill="url(#linear-gradient-3)" d="M-8.5,5.55,28.106-5.3,10.228-16.437l-36.6,10.845Z" data-name="路径 80" transform="translate(26.375 16.438)"/></g><g id="组_70" data-name="组 70" transform="translate(852.701 1112.737)"><path id="路径_78" fill="url(#linear-gradient-3)" d="M0,10.539,35.741,0V91.56L0,102.1Z" data-name="路径 78" transform="translate(17.457 10.88)"/><path id="路径_79" fill="url(#linear-gradient-5)" d="M-8.913,10.38-26.361-.469V91.093l17.448,10.848Z" data-name="路径 79" transform="translate(26.37 11.038)"/><path id="路径_77" fill="url(#linear-gradient-3)" d="M-8.918,5.032,26.823-5.558,9.366-16.437-26.375-5.848Z" data-name="路径 77" transform="translate(26.375 16.438)"/></g><g id="组_71" data-name="组 71" transform="translate(784.616 1142.192)"><path id="路径_74" fill="url(#linear-gradient-7)" d="M0,9.137,30.839,0V79.381L0,88.519Z" data-name="路径 74" transform="translate(15.062 9.387)"/><path id="路径_75" fill="url(#linear-gradient-2)" d="M-11.306,8.936l-15.054-9.4V78.913l15.054,9.4Z" data-name="路径 75" transform="translate(26.369 9.588)"/><path id="路径_76" fill="url(#linear-gradient-9)" d="M-11.313,2.087,19.526-7.05,4.464-16.437-26.375-7.3Z" data-name="路径 76" transform="translate(26.375 16.438)"/></g><path id="减去_26" fill="url(#linear-gradient-10)" d="M178,53H0A51.361,51.361,0,0,1,10.453,32.048,74.532,74.532,0,0,1,30.195,15.237,103.3,103.3,0,0,1,57.089,4.058a127.515,127.515,0,0,1,63.823,0,103.3,103.3,0,0,1,26.894,11.179,74.532,74.532,0,0,1,19.741,16.811A51.363,51.363,0,0,1,178,53Z" data-name="减去 26" transform="translate(744 1187.549)"/><g id="组_400" data-name="组 400" transform="translate(-1 -2)"><path id="路径_282" fill="#cbcbcb" d="M857.529,1168.586l-1.272,1.212h2.3l1.2-1.212Z" data-name="路径 282" transform="translate(-42 33)"/><path id="路径_283" fill="#cbcbcb" d="M857.725,1168.909l-1.272,1.212h2.3l1.263-1.212Z" data-name="路径 283" transform="translate(-40 28)"/><path id="路径_278" fill="#cbcbcb" d="M858.284,1168.585l-1.272,1.212h2.3l1.2-1.212Z" data-name="路径 278" transform="translate(6 33)"/><path id="路径_277" fill="#cbcbcb" d="M858.519,1168.9l-1.272,1.212h2.3l1.263-1.212Z" data-name="路径 277" transform="translate(8 28)"/><path id="路径_266" fill="#c6c6c6" d="M-27.694-2.79-17.512-24.76h4.381L-23.062-3.041H-8.186V.9H-27.694Zm13.081-9.493h4.152V5.576h-4.152ZM6.115,5.868q-4.256,0-6.457-2.274a8.74,8.74,0,0,1-2.2-6.343V-16.54A8.708,8.708,0,0,1-.332-22.893q2.212-2.264,6.447-2.264,4.256,0,6.457,2.253a8.726,8.726,0,0,1,2.2,6.363V-2.749A8.708,8.708,0,0,1,12.562,3.6Q10.351,5.868,6.115,5.868Zm0-4.048A4.29,4.29,0,0,0,9.443.642a4.862,4.862,0,0,0,1.074-3.39V-16.54a4.893,4.893,0,0,0-1.064-3.39,4.285,4.285,0,0,0-3.338-1.179A4.285,4.285,0,0,0,2.777-19.93a4.893,4.893,0,0,0-1.064,3.39V-2.749A4.862,4.862,0,0,0,2.788.642,4.29,4.29,0,0,0,6.115,1.82ZM21.043-2.79,31.224-24.76h4.381L25.674-3.041H40.55V.9H21.043Zm13.081-9.493h4.152V5.576H34.124Z" data-name="路径 266" transform="translate(828.221 1196)"/><path id="路径_265" fill="#b2b2b2" d="M-27.694-2.79-17.512-24.76h4.381L-23.062-3.041H-8.186V.9H-27.694Zm13.081-9.493h4.152V5.576h-4.152ZM6.115,5.868q-4.256,0-6.457-2.274a8.74,8.74,0,0,1-2.2-6.343V-16.54A8.708,8.708,0,0,1-.332-22.893q2.212-2.264,6.447-2.264,4.256,0,6.457,2.253a8.726,8.726,0,0,1,2.2,6.363V-2.749A8.708,8.708,0,0,1,12.562,3.6Q10.351,5.868,6.115,5.868Zm0-4.048A4.29,4.29,0,0,0,9.443.642a4.862,4.862,0,0,0,1.074-3.39V-16.54a4.893,4.893,0,0,0-1.064-3.39,4.285,4.285,0,0,0-3.338-1.179A4.285,4.285,0,0,0,2.777-19.93a4.893,4.893,0,0,0-1.064,3.39V-2.749A4.862,4.862,0,0,0,2.788.642,4.29,4.29,0,0,0,6.115,1.82ZM21.043-2.79,31.224-24.76h4.381L25.674-3.041H40.55V.9H21.043Zm13.081-9.493h4.152V5.576H34.124Z" data-name="路径 265" transform="translate(827 1197.221)"/><path id="路径_264" fill="url(#linear-gradient-11)" d="M-27.694-19.435-17.512-4.918h4.381l-9.931-14.352H-8.186v-2.606H-27.694Zm13.081,6.273h4.152v-11.8h-4.152ZM6.115-25.156q-4.256,0-6.457,1.5a4.8,4.8,0,0,0-2.2,4.191v9.113a4.784,4.784,0,0,0,2.212,4.2,11.511,11.511,0,0,0,6.447,1.5q4.256,0,6.457-1.489a4.786,4.786,0,0,0,2.2-4.2v-9.113a4.784,4.784,0,0,0-2.212-4.2A11.511,11.511,0,0,0,6.115-25.156Zm0,2.675a5.705,5.705,0,0,1,3.328.779,2.6,2.6,0,0,1,1.074,2.24v9.113a2.607,2.607,0,0,1-1.064,2.24,5.7,5.7,0,0,1-3.338.779,5.7,5.7,0,0,1-3.338-.779,2.607,2.607,0,0,1-1.064-2.24v-9.113A2.6,2.6,0,0,1,2.788-21.7,5.705,5.705,0,0,1,6.115-22.482Zm14.927,3.047L31.224-4.918h4.381L25.674-19.269H40.55v-2.606H21.043Zm13.081,6.273h4.152v-11.8H34.124Z" data-name="路径 264" opacity=".32" transform="translate(827 1228.245)"/></g></g><g id="组_406" data-name="组 406"><path id="路径_273" fill="#e6e6e6" d="M858.428,1169.23l-1.2,1.259h4.388l1.178-1.259Z" data-name="路径 273"/><path id="联合_56" fill="#e6e6e6" d="M.312,22.957,1.6,21.582H8.743v1.375Zm8.415-9.25L10,12.473H14.15l-1.235,1.234ZM5.872,1.238,7.07-.021h4.367L10.259,1.238Z" data-name="联合 56" transform="translate(802.632 1169.23)"/><path id="路径_275" fill="#e6e6e6" d="M859.362,1168.678l-1.27,1.3h4.188l1.236-1.3Z" data-name="路径 275" transform="translate(2 13)"/><path id="路径_276" fill="#e6e6e6" d="M858.519,1168.9l-1.27,1.3h2.3l1.162-1.3Z" data-name="路径 276" transform="translate(7 22)"/><path id="路径_274" fill="#e6e6e6" d="M852.838,1190.791l-1.207,1.508h8.447v-1.508Z" data-name="路径 274"/></g></g></g></svg>