<svg xmlns="http://www.w3.org/2000/svg" width="20" height="21" fill="none" viewBox="0 0 20 21"><g filter="url(#filter0_f)" opacity=".5"><rect width="8" height="1" x="6" y="15.5" fill="#47494B"/></g><rect width="11" height="13" x="4.5" y="3.5" fill="#fff" stroke="#959798" stroke-width=".6" rx="1"/><rect width="11" height="13" x="4.5" y="3.5" fill="#fff" stroke="#959798" stroke-width=".6" rx="1"/><path fill="#959798" fill-rule="evenodd" d="M8 7.48389C8 7.34582 8.11193 7.23389 8.25 7.23389H13.75C13.8881 7.23389 14 7.34582 14 7.48389C14 7.62196 13.8881 7.73389 13.75 7.73389H8.25C8.11193 7.73389 8 7.62196 8 7.48389Z" clip-rule="evenodd"/><path fill="#959798" fill-rule="evenodd" d="M10.5 9.25C10.5 9.11193 10.6119 9 10.75 9H13.25C13.3881 9 13.5 9.11193 13.5 9.25C13.5 9.38807 13.3881 9.5 13.25 9.5H10.75C10.6119 9.5 10.5 9.38807 10.5 9.25Z" clip-rule="evenodd"/><path fill="#959798" fill-rule="evenodd" d="M8 9.25C8 9.11193 8.11193 9 8.25 9H9.75C9.88807 9 10 9.11193 10 9.25C10 9.38807 9.88807 9.5 9.75 9.5H8.25C8.11193 9.5 8 9.38807 8 9.25Z" clip-rule="evenodd"/><path fill="#959798" fill-rule="evenodd" d="M8 11C8 10.8619 8.11193 10.75 8.25 10.75H11.75C11.8881 10.75 12 10.8619 12 11C12 11.1381 11.8881 11.25 11.75 11.25H8.25C8.11193 11.25 8 11.1381 8 11Z" clip-rule="evenodd"/><path fill="#959798" fill-rule="evenodd" d="M8 12.7639C8 12.6258 8.11193 12.5139 8.25 12.5139H13.75C13.8881 12.5139 14 12.6258 14 12.7639C14 12.902 13.8881 13.0139 13.75 13.0139H8.25C8.11193 13.0139 8 12.902 8 12.7639Z" clip-rule="evenodd"/><circle cx="6.65" cy="12.764" r=".5" fill="#696A6B"/><circle cx="6.65" cy="11" r=".5" fill="#696A6B"/><circle cx="6.65" cy="9.25" r=".5" fill="#696A6B"/><circle cx="6.65" cy="7.484" r=".5" fill="#696A6B"/><defs><filter id="filter0_f" width="15.068" height="8.068" x="2.466" y="11.966" color-interpolation-filters="sRGB" filterUnits="userSpaceOnUse"><feFlood flood-opacity="0" result="BackgroundImageFix"/><feBlend in="SourceGraphic" in2="BackgroundImageFix" mode="normal" result="shape"/><feGaussianBlur result="effect1_foregroundBlur" stdDeviation="1.767"/></filter></defs></svg>